# xmcd CD database file
#
# Track frame offsets:
#	150
#	16550
#	27395
#	48922
#	75200
#	98675
#	107817
#	127592
#	140785
#	153000
#	167835
#	181347
#
# Disc length: 2578 seconds
#
# Revision: 0
# Processed by: cddbd v1.5PL3 Copyright (c) Steve Scherf et al.
# Submitted via: CDex 1.50
#
DISCID=7f0a100c
DTITLE=Torill and Gøran Nordvik - Titanics forlis
DYEAR=1998
DGENRE=Schillingsviser
TTITLE0=Titanics forlis
TTITLE1=Kverndalsgata
TTITLE2=Alperosen
TTITLE3=Lille Ester
TTITLE4=Bjørkens vise
TTITLE5=ABCD vise
TTITLE6=Lilla Vackra Anna
TTITLE7=Elvira Maddigan
TTITLE8=Cecilie och rallaren
TTITLE9=I en sal på hospitalet
TTITLE10=Lausonge Olga
TTITLE11=Adjø Farvel
EXTD=YEAR: 1998
EXTT0=
EXTT1=
EXTT2=
EXTT3=
EXTT4=
EXTT5=
EXTT6=
EXTT7=
EXTT8=
EXTT9=
EXTT10=
EXTT11=
PLAYORDER=
